PathFileType	4	(X/Y/Z)	36_2_13_p0_0-219_filt_butterworth.trc
DataRate	CameraRate	NumFrames	NumMarkers	Units	OrigDataRate	OrigDataStartFrame	OrigNumFrames
47.0	47.0	6	27	m	47.0	0	219
Frame#	Time	RHip			RKnee			RAnkle			RBigToe			RSmallToe			RHeel			LHip			LKnee			LAnkle			LBigToe			LSmallToe			LHeel			Neck			Head			Nose			RShoulder			RElbow			RWrist			RThumb			RIndex			RPinky			LShoulder			LElbow			LWrist			LThumb			LIndex			LPinky			
		X1	Y1	Z1	X2	Y2	Z2	X3	Y3	Z3	X4	Y4	Z4	X5	Y5	Z5	X6	Y6	Z6	X7	Y7	Z7	X8	Y8	Z8	X9	Y9	Z9	X10	Y10	Z10	X11	Y11	Z11	X12	Y12	Z12	X13	Y13	Z13	X14	Y14	Z14	X15	Y15	Z15	X16	Y16	Z16	X17	Y17	Z17	X18	Y18	Z18	X19	Y19	Z19	X20	Y20	Z20	X21	Y21	Z21	X22	Y22	Z22	X23	Y23	Z23	X24	Y24	Z24	X25	Y25	Z25	X26	Y26	Z26	X27	Y27	Z27	
0	0.0	0.31017188987500494	0.5562633796968741	-0.103596626402836	0.34643546108775247	0.6265691400398237	0.3380373642066302	0.37476873113624026	0.73757977144129	0.7260921876222224	0.33930082009625895	0.5251344859409599	0.7434952032264888	0.4040698074019461	0.5474872385314896	0.7441374214399757	0.3524532416537599	0.8227868078222444	0.7794494489909584	0.12800771198737815	0.5449049012152428	-0.08397760636339552	0.13159851833846406	0.656322145637245	0.3435449187077419	0.1609442254478632	0.7233508392459435	0.7336992212705116	0.17845393776018917	0.536811829107932	0.7552433526167723	0.12396103191715215	0.5909869884237061	0.7783523738228275	0.17666118366332886	0.7542105549140912	0.7803578034992165	0.17052022017251273	0.5187464732383567	-0.57848838005171	0.16067047390309763	0.4575252177186182	-0.8259691213141142	0.1631274874155805	0.3971199345734051	-0.6978825160506315	0.3121647858975268	0.5047008281108947	-0.5060677728057643	0.3396542706621756	0.49562615810136235	-0.25155386286636205	0.2846086853748653	0.3855290381475356	-0.03061556086327491	0.21001434236577793	0.4067195174594166	0.07250307270725147	0.21853696888952248	0.4097984396067204	0.09440421716140801	0.25995262593351204	0.39865615427655743	0.08965601271820023	0.022572394678971156	0.4996937292000779	-0.47962382073515336	0.04390535957089848	0.4762838267571692	-0.2331282275723559	0.1756610654209077	0.35323136062920735	-0.045679341523672756	0.23307466029956056	0.3558065904800677	0.028511501542103898	0.24107100940285758	0.3587130551449005	0.07146399401498744	0.20891267742967978	0.3942899186782407	0.08009932122585382
1	0.0212765957446808	0.30736658255673777	0.5548928274562693	-0.09766524942253899	0.3416260723018387	0.6314986929631312	0.3390591134786019	0.37480343728170784	0.7377324683521944	0.7262212865993228	0.3416480808969518	0.5304270950551165	0.7484850477896804	0.4047955215985792	0.5485798038077117	0.7475903306443317	0.3530146140251398	0.8189834731619727	0.7813757608403287	0.1279110268601087	0.5448562831125953	-0.08339304380502516	0.12971634194860343	0.6548201762478266	0.34775170508467973	0.15980883249521127	0.7207887374536516	0.7321781993984084	0.17275076854814805	0.5450346965354115	0.7587265426672658	0.12462928006024092	0.5902882306895477	0.7766491421479484	0.17555548505481006	0.7514315922504811	0.7797412938724807	0.170498018941566	0.5186966430164209	-0.5795733165409414	0.16067850896083594	0.45757884497005213	-0.8259171014708154	0.16291736058923206	0.3965297824474428	-0.7003505992743863	0.3120797052633132	0.5046664367337995	-0.506083003984995	0.3396800391233802	0.4955936721788644	-0.25161451522920014	0.28328604106823047	0.3812039602765805	-0.031253191117916794	0.2111043766152226	0.40737314171450245	0.07838408484977107	0.21852055351814859	0.4097092261976085	0.09460899300291353	0.26147552913326794	0.39890379712096913	0.09063119768626962	0.022645565247331564	0.49973138462372735	-0.4797240446841677	0.0439264430459788	0.47596939260425186	-0.23334650712366975	0.1756278209580922	0.3533916936174067	-0.045734732995854545	0.23099612936695646	0.3562737248999803	0.032228542313125205	0.23838702702881606	0.3584699061671097	0.0715745611072172	0.20890264944690995	0.3943000507202738	0.08000324352098852
2	0.0425531914893617	0.3060365537120559	0.5541782623042245	-0.0948902717684594	0.34044353505689656	0.6299854152110724	0.3391498396742296	0.37478136109475074	0.7382243156093999	0.726486529055765	0.34261747076682436	0.5327017662687061	0.7507819247593781	0.4051014385570874	0.5492193500480652	0.7493454691753341	0.3540124096729506	0.8173619167038532	0.7823349329161846	0.12798072970678684	0.5448810570964718	-0.08346513034797617	0.12910240187082925	0.6546840011155827	0.3510701693319437	0.1587389251385814	0.7194209866852741	0.7316176453313787	0.1703174903041656	0.5484819082298763	0.7594201263679508	0.12496466543279199	0.5900654531753005	0.7750547514686743	0.17412452477922646	0.7501214376744559	0.7794208107815013	0.17046156669301665	0.5186746507740204	-0.5808954709747405	0.16068160517759517	0.45760664804095574	-0.8258953209241011	0.16281901396725582	0.39629590837361195	-0.7014993315257164	0.3120309270648022	0.5046394907489273	-0.5060873116429627	0.3396714093534217	0.4955617626925252	-0.2516391560297145	0.282725722935088	0.3790997811243685	-0.030993037592876676	0.21159210872703604	0.40775243596203936	0.08111437447695052	0.21851629645816267	0.4096775087079344	0.09475200290527601	0.26121878352540445	0.39884455503483673	0.09111244471171825	0.02268032054972192	0.4997620154028489	-0.4797817209605186	0.043932160705661374	0.4758496667639124	-0.23343732726216415	0.17561269032407303	0.35341866703211317	-0.045780981557504624	0.22933832579029675	0.3561210016370398	0.033919131756382566	0.2370057055493804	0.35828872943904744	0.0715627263196462	0.20889338702067844	0.39427503064365566	0.07985791670306115
3	0.0638297872340425	0.30597639778812685	0.5540735742871359	-0.09480497655606744	0.34167514439626573	0.6257227799372486	0.3385971672478898	0.3746869448910816	0.7374457907592721	0.7261368153870256	0.34190265369142525	0.5307267972528794	0.7501235676127941	0.40498209522548045	0.5492560392706293	0.7495959262733283	0.35413542013966764	0.8153756856808755	0.7816320145468096	0.12787506552824662	0.5449683127119219	-0.08447080136642963	0.12936140496740742	0.6553016116576744	0.3527079251638299	0.15808385078717974	0.7192130325324937	0.7318031031927043	0.170198428348583	0.5489188435643026	0.7588709693395201	0.12498482001391885	0.589762590149314	0.7740122138474194	0.1731171525631114	0.750045108669064	0.777834407226554	0.1704336770402169	0.5186829771179785	-0.5818663896128926	0.16068471280511346	0.45761487989383387	-0.8259049056650607	0.16282534907172233	0.39637897339854355	-0.7015272686360982	0.3120212654171575	0.5046354631481047	-0.506079728252659	0.3396351037951938	0.4955314627868794	-0.25163283021924565	0.28223932971370225	0.37737127103346907	-0.03086720924179848	0.2115423394868294	0.4078008091542753	0.08117341414130151	0.21843663954501072	0.409661265954527	0.09478629896420207	0.2601900569425728	0.3985869733688533	0.09070823200320026	0.02267000808714003	0.4997785396132087	-0.47979814399939774	0.04392281703778492	0.47587946573928175	-0.23340662075888108	0.17560647754446396	0.353342038423175	-0.045797632379408953	0.22943896323336982	0.3557034002634062	0.03388458630654096	0.23681880155326482	0.3581470217340586	0.07148815772924458	0.20892345768325768	0.3942678057690375	0.07970599541962758
4	0.0851063829787234	0.30621091051872534	0.5541943774464598	-0.09528036874766325	0.3426037483927762	0.6239460894465616	0.3379384249262517	0.3746932835216467	0.732930559959464	0.7240717489302438	0.34078636515337324	0.5275439213432688	0.7487136908218963	0.404683799578707	0.5489505281563901	0.7494003234106625	0.3533381809690658	0.812718336670248	0.780421448780251	0.12696564052943085	0.544943075222073	-0.08579260114240443	0.12960480190397264	0.6555761070766433	0.35291138730113075	0.1578682731476487	0.7195530523635039	0.7319955360576835	0.1691889657317277	0.5528639802181544	0.7607309551917966	0.12484281052133753	0.5895093953589107	0.773806042485341	0.17300053547126767	0.7501346458381333	0.7744778786198634	0.17043926720392305	0.5186984579583365	-0.5818660963510547	0.1606914285230565	0.45762317655256535	-0.8259247668641866	0.16286234556388995	0.3965099678982586	-0.7013310445185503	0.31202757297076017	0.504647396956257	-0.5060716134383585	0.3396002492575616	0.49550766429259674	-0.2516291129182629	0.2815262862932599	0.3753493419696491	-0.031679088229016654	0.21140053809600182	0.40767027835490444	0.08069610968012872	0.21828707117380652	0.40964275495648445	0.09474092127495971	0.25976791635937013	0.3984219081818945	0.08999705531647763	0.02263829820858715	0.49978897574761194	-0.47979663468948175	0.043919162292090905	0.4759347445481085	-0.23333924349730598	0.17560854469411485	0.35328694014816725	-0.045785451889280994	0.23195374585245845	0.35564304225854837	0.03349408494745323	0.23730166659230278	0.35811295743898336	0.07146157638009426	0.20903606227325344	0.3944826319927291	0.0797390017035054
5	0.1063829787234042	0.3063007915516186	0.5543090606619908	-0.09537467036917545	0.3422901564034154	0.6243874036429911	0.3377202361055194	0.37495920154950924	0.7259402540229083	0.7206606378639338	0.3403757970429573	0.5262701482173429	0.7481683486301478	0.404410468889437	0.5487131572074456	0.7492422562316557	0.3528635345700961	0.8115912323165382	0.7800045408387218	0.12536968555442796	0.5445601835988785	-0.08651870665267236	0.1297252834292522	0.6554573396446826	0.35238817512488974	0.15791349277618605	0.7201569386368372	0.7316702146352985	0.16658488229823848	0.5615990252809917	0.7651455531258808	0.12458605141449083	0.5902722292341995	0.7742284078780154	0.1733600863943014	0.7498241385679016	0.7706530722541004	0.17046881802882272	0.5187051255364034	-0.5808435696520704	0.16069751623922637	0.45763335568484537	-0.8259360372844969	0.16288112452182402	0.3965185042029812	-0.7012894378782897	0.3120341991540346	0.5046542627649483	-0.5060707270690322	0.33958041825596585	0.49549063286187384	-0.25163382320986166	0.28114718590702986	0.37447151130149625	-0.032626988010558904	0.21142610815485421	0.40754738205729873	0.08056400610050093	0.2185188627374186	0.4096296514487242	0.09484538655488058	0.2598135562932781	0.39840484156169415	0.08969464847213894	0.022615076612610974	0.49980927883987974	-0.4797923012667997	0.04393606717489438	0.4759837870725952	-0.2332987115956759	0.17562068484447974	0.35328048594046557	-0.04577051962752253	0.23465128087584378	0.356007537999295	0.03334886987626203	0.23846169696270114	0.3583279225467979	0.07148707544991056	0.2091993806063799	0.3948522080120578	0.0802368368898182
